<?xml version="1.0" encoding="UTF-8"?>
<svg width="86px" height="58px" viewBox="0 0 86 58" version="1.1" xmlns="http://www.w3.org/2000/svg" xmlns:xlink="http://www.w3.org/1999/xlink">
    <!-- Generator: Sketch 50.2 (55047) - http://www.bohemiancoding.com/sketch -->
    <title>noun_1570746_cc</title>
    <desc>Created with Sketch.</desc>
    <defs></defs>
    <g id="Page-1" stroke="none" stroke-width="1" fill="none" fill-rule="evenodd">
        <g id="noun_1570746_cc" transform="translate(0.000000, -1.000000)" fill="#000000" fill-rule="nonzero">
            <g id="Group" transform="translate(0.000000, 0.637820)">
                <path d="M6,0.36217 C2.6863002,0.36217 2e-07,3.04836 2e-07,6.36217 C2e-07,9.67576 2.6863002,12.36217 6,12.36217 L80,12.36217 C83.3137,12.36217 86,9.67576 86,6.36217 C86,3.04836 83.3137,0.36217 80,0.36217 L6,0.36217 Z M6,23.36217 C2.6863002,23.36217 2e-07,26.04836 2e-07,29.3622 C2e-07,32.6758 2.6863002,35.3622 6,35.3622 L80,35.3622 C83.3137,35.3622 86,32.6758 86,29.3622 C86,26.04836 83.3137,23.36217 80,23.36217 L6,23.36217 Z M6,46.3622 C2.6863002,46.3622 2e-07,49.0484 2e-07,52.3622 C2e-07,55.6758 2.6863002,58.3622 6,58.3622 L80,58.3622 C83.3137,58.3622 86,55.6758 86,52.3622 C86,49.0484 83.3137,46.3622 80,46.3622 L6,46.3622 Z" id="Shape"></path>
            </g>
        </g>
    </g>
</svg>