<?xml version="1.0" encoding="UTF-8"?>
<svg width="86px" height="68px" viewBox="0 0 86 68" version="1.1" xmlns="http://www.w3.org/2000/svg" xmlns:xlink="http://www.w3.org/1999/xlink">
    <!-- Generator: Sketch 50.2 (55047) - http://www.bohemiancoding.com/sketch -->
    <title>noun_1570746_cc</title>
    <desc>Created with Sketch.</desc>
    <defs></defs>
    <g id="Page-1" stroke="none" stroke-width="1" fill="none" fill-rule="evenodd">
        <g id="noun_1570746_cc" transform="translate(0.000000, -1.000000)" fill="#000000" fill-rule="nonzero">
            <g id="Group" transform="translate(0.000000, 0.637820)">
                <path d="M6,0.36217 C2.6863002,0.36217 2e-07,3.04836 2e-07,6.36217 C2e-07,9.67576 2.6863002,12.36217 6,12.36217 L80,12.36217 C83.3137,12.36217 86,9.67576 86,6.36217 C86,3.04836 83.3137,0.36217 80,0.36217 L6,0.36217 Z M6,28.36217 C2.6863002,28.36217 2e-07,31.04836 2e-07,34.3622 C2e-07,37.6758 2.6863002,40.3622 6,40.3622 L80,40.3622 C83.3137,40.3622 86,37.6758 86,34.3622 C86,31.04836 83.3137,28.36217 80,28.36217 L6,28.36217 Z M6,56.3622 C2.6863002,56.3622 2e-07,59.0484 2e-07,62.3622 C2e-07,65.6758 2.6863002,68.3622 6,68.3622 L80,68.3622 C83.3137,68.3622 86,65.6758 86,62.3622 C86,59.0484 83.3137,56.3622 80,56.3622 L6,56.3622 Z" id="Shape"></path>
            </g>
        </g>
    </g>
</svg>